# xmcd
#
# Track frame offsets:
#	150
#	22254
#	40038
#	63356
#	98523
#	128236
#	151328
#	177839
#	201134
#	237364
#	257713
#	278200
#	301734
#
# Disc length: 4467 seconds
#
# Revision: 3
# Processed by: cddbd v1.5.2PL0 Copyright (c) Steve Scherf et al.
# Submitted via: audiograbber 1.83.01
#
DISCID=a911710d
DTITLE=Various Artist - Meisterwerke der Klassik - Zur Ruhe [CD 10)
DYEAR=2006
DGENRE=Klassik
TTITLE0=Jules Massenet - 1. Thaïs  Méditation
TTITLE1=Camille Saint-Saëns - 2. Der Karneval der Tiere  Der Schwan
TTITLE2=Edvard Grieg  - 3. Peer Gynt Suite Nr. 2 Op. 55  Solveigs Lied
TTITLE3=Wolfgang Amadeus Mozart - 4. Klavierkonzert Nr. 23 A-Dur KV 488  2.  Ad
TTITLE3=agio
TTITLE4=Johann Sebastian Bach - 5. Konzert für 2 Violinen D-Moll BWV 1043  2. L
TTITLE4=argo ma non tanto
TTITLE5=Antonio Vivaldi - 6.. Gitarrenkonzert D-Dur RV 93  2. Largo
TTITLE6=Luigi Boccherini - 7.. Cellokonzert B-Dur G 482  2. Adagio ma non tropp
TTITLE6=o
TTITLE7=Johann Sebastian Bach - 8.. Oboenkonzert F-dur BWV 10532  Siciliano
TTITLE8=Wolfgang Amadeus Mozart - 9. Violinkonzert Nr. 3 G-Dur KV 216  2. Adagi
TTITLE8=o
TTITLE9=Ralph Vaughan Williams - 10. Fantasia on Greensleeves
TTITLE10=Victor Massé - 11. Les Noces de Jeannette  Air du rossignol - Lied der
TTITLE10=Nachtigall
TTITLE11=Joaquín Rodrigo - 12. Fantasía para un gentilhombre  Españoleta. Adagi
TTITLE11=o
TTITLE12=Ottorino Respighi - 13. Pini di Roma  I Pini del Gianicola
EXTD=
EXTT0=
EXTT1=
EXTT2=
EXTT3=
EXTT4=
EXTT5=
EXTT6=
EXTT7=
EXTT8=
EXTT9=
EXTT10=
EXTT11=
EXTT12=
PLAYORDER=
